<?xml version="1.0" encoding="UTF-8" standalone="no"?>
<!-- Created with Inkscape (http://www.inkscape.org/) -->

<svg
   xmlns:dc="http://purl.org/dc/elements/1.1/"
   xmlns:cc="http://creativecommons.org/ns#"
   xmlns:rdf="http://www.w3.org/1999/02/22-rdf-syntax-ns#"
   xmlns:svg="http://www.w3.org/2000/svg"
   xmlns="http://www.w3.org/2000/svg"
   xmlns:sodipodi="http://sodipodi.sourceforge.net/DTD/sodipodi-0.dtd"
   xmlns:inkscape="http://www.inkscape.org/namespaces/inkscape"
   width="200mm"
   height="200mm"
   viewBox="0 0 200 200"
   version="1.1"
   id="svg1174"
   sodipodi:docname="books-icon.svg"
   inkscape:version="0.92.5 (2060ec1f9f, 2020-04-08)">
  <defs
     id="defs1168" />
  <sodipodi:namedview
     id="base"
     pagecolor="#ffffff"
     bordercolor="#666666"
     borderopacity="1.0"
     inkscape:pageopacity="0"
     inkscape:pageshadow="2"
     inkscape:zoom="0.61164737"
     inkscape:cx="338.15431"
     inkscape:cy="396.84392"
     inkscape:document-units="mm"
     inkscape:current-layer="layer5"
     showgrid="false"
     inkscape:window-width="1366"
     inkscape:window-height="705"
     inkscape:window-x="-8"
     inkscape:window-y="-8"
     inkscape:window-maximized="1"
     inkscape:object-nodes="false"
     inkscape:snap-nodes="false"
     inkscape:snap-others="false" />
  <metadata
     id="metadata1171">
    <rdf:RDF>
      <cc:Work
         rdf:about="">
        <dc:format>image/svg+xml</dc:format>
        <dc:type
           rdf:resource="http://purl.org/dc/dcmitype/StillImage" />
        <dc:title />
      </cc:Work>
    </rdf:RDF>
  </metadata>
  <g
     inkscape:groupmode="layer"
     id="layer5"
     inkscape:label="Layer 3">
    <path
       d="m 199.11835,100.08032 c 0,53.89994 -44.22392,97.59406 -98.77745,97.59406 -54.553524,0 -98.7784597,-43.69412 -98.7784597,-97.59406 0,-53.899937 44.2249357,-97.59505 98.7784597,-97.59505 54.55353,0 98.77745,43.695113 98.77745,97.59505"
       style="display:inline;fill:#3a8789;fill-opacity:1;fill-rule:nonzero;stroke:none;stroke-width:1.0045526"
       id="path183"
       inkscape:connector-curvature="0" />
    <path
       d="m 43.842143,158.88558 69.006057,37.93767 c 48.69233,-6.31863 86.27004,-47.2209 86.27004,-96.74333 0,-6.734012 -0.69477,-13.308244 -2.01721,-19.6588 L 145.51355,41.27427 Z"
       style="display:inline;fill:#1d5656;fill-opacity:1;fill-rule:nonzero;stroke:none;stroke-width:1.00784659"
       id="path187"
       inkscape:connector-curvature="0" />
  </g>
  <g
     inkscape:groupmode="layer"
     id="layer4"
     inkscape:label="Layer 2"
     sodipodi:insensitive="true">
    <path
       d="m 165.95048,134.82521 c 0,0 -5.26371,10.17521 0.6024,21.63417 H 45.388292 l -0.601389,-23.13713 z"
       style="display:inline;fill:#e7e6e6;fill-opacity:1;fill-rule:nonzero;stroke:none;stroke-width:1.02295625"
       id="path191"
       inkscape:connector-curvature="0" />
    <path
       d="m 161.06524,74.473797 c 0,0 -5.25855,10.17519 0.60039,21.63517 H 40.667266 l -0.601391,-23.13713 z"
       style="display:inline;fill:#e7e6e6;fill-opacity:1;fill-rule:nonzero;stroke:none;stroke-width:1.02295625"
       id="path231"
       inkscape:connector-curvature="0" />
  </g>
  <g
     inkscape:label="Layer 1"
     inkscape:groupmode="layer"
     id="layer1"
     transform="translate(0,-97)"
     style="display:inline"
     sodipodi:insensitive="true">
    <path
       d="M 163.69745,233.92298 H 43.841429 v -0.93591 H 163.69745 Z"
       style="fill:#d0d1d1;fill-opacity:1;fill-rule:nonzero;stroke:none;stroke-width:1.01452518"
       id="path201"
       inkscape:connector-curvature="0" />
    <path
       d="M 163.69745,235.7948 H 43.841429 v -0.93591 H 163.69745 Z"
       style="fill:#d0d1d1;fill-opacity:1;fill-rule:nonzero;stroke:none;stroke-width:1.01452518"
       id="path203"
       inkscape:connector-curvature="0" />
    <path
       d="M 163.69745,238.60354 H 43.841429 v -0.93591 H 163.69745 Z"
       style="fill:#d0d1d1;fill-opacity:1;fill-rule:nonzero;stroke:none;stroke-width:1.01452518"
       id="path205"
       inkscape:connector-curvature="0" />
    <path
       d="M 163.69745,241.41127 H 43.841429 v -0.93591 H 163.69745 Z"
       style="fill:#d0d1d1;fill-opacity:1;fill-rule:nonzero;stroke:none;stroke-width:1.01452518"
       id="path207"
       inkscape:connector-curvature="0" />
    <path
       d="M 163.69745,243.28309 H 43.841429 v -0.93591 H 163.69745 Z"
       style="fill:#d0d1d1;fill-opacity:1;fill-rule:nonzero;stroke:none;stroke-width:1.01452518"
       id="path209"
       inkscape:connector-curvature="0" />
    <path
       d="M 163.69745,245.15593 H 43.841429 v -0.93691 H 163.69745 Z"
       style="fill:#d0d1d1;fill-opacity:1;fill-rule:nonzero;stroke:none;stroke-width:1.01452518"
       id="path211"
       inkscape:connector-curvature="0" />
    <path
       d="M 163.69745,247.96265 H 43.841429 v -0.93591 H 163.69745 Z"
       style="fill:#d0d1d1;fill-opacity:1;fill-rule:nonzero;stroke:none;stroke-width:1.01452518"
       id="path213"
       inkscape:connector-curvature="0" />
    <path
       d="M 163.69745,250.7714 H 43.841429 v -0.93491 H 163.69745 Z"
       style="fill:#d0d1d1;fill-opacity:1;fill-rule:nonzero;stroke:none;stroke-width:1.01452518"
       id="path215"
       inkscape:connector-curvature="0" />
    <path
       d="m 45.44647,239.81963 v -3.04449 c 0,-5.40906 4.409838,-4.97095 4.409838,-4.97095 H 166.35025 v -6.21343 H 48.654919 c -2.47195,0 -4.186037,0.70927 -5.380304,1.73929 v -7.8e-4 c 0,0 -0.0061,0.003 -0.0072,0.006 -0.103749,0.0889 -0.201418,0.18127 -0.297041,0.27505 -0.01131,0.0111 -0.02134,0.02 -0.03151,0.0305 -0.05188,0.0524 -0.107851,0.10405 -0.158684,0.15775 -2.226788,2.23708 -10.84301,12.37828 -0.922657,26.7124 1.089489,1.86977 3.101634,3.45425 6.797354,3.45425 H 166.35017 V 251.7503 H 49.856308 c 0,0 -4.409838,0.4371 -4.409838,-4.97095 v -3.04447 z"
       style="fill:#ff4200;fill-opacity:1;fill-rule:nonzero;stroke:none;stroke-width:1.01452518"
       id="path227"
       inkscape:connector-curvature="0" />
    <path
       d="M 158.63247,174.30299 H 38.939237 v -0.93591 H 158.63247 Z"
       style="fill:#d0d1d1;fill-opacity:1;fill-rule:nonzero;stroke:none;stroke-width:1.01452518"
       id="path241"
       inkscape:connector-curvature="0" />
    <path
       d="M 158.63247,176.17482 H 38.939237 v -0.9359 H 158.63247 Z"
       style="fill:#d0d1d1;fill-opacity:1;fill-rule:nonzero;stroke:none;stroke-width:1.01452518"
       id="path243"
       inkscape:connector-curvature="0" />
    <path
       d="M 158.63247,178.98356 H 38.939237 v -0.93692 H 158.63247 Z"
       style="fill:#d0d1d1;fill-opacity:1;fill-rule:nonzero;stroke:none;stroke-width:1.01452518"
       id="path245"
       inkscape:connector-curvature="0" />
    <path
       d="M 158.63247,181.7913 H 38.939237 v -0.93591 H 158.63247 Z"
       style="fill:#d0d1d1;fill-opacity:1;fill-rule:nonzero;stroke:none;stroke-width:1.01452518"
       id="path247"
       inkscape:connector-curvature="0" />
    <path
       d="M 158.63247,183.66312 H 38.939237 v -0.93591 H 158.63247 Z"
       style="fill:#d0d1d1;fill-opacity:1;fill-rule:nonzero;stroke:none;stroke-width:1.01452518"
       id="path249"
       inkscape:connector-curvature="0" />
    <path
       d="M 158.63247,185.53494 H 38.939237 v -0.93591 H 158.63247 Z"
       style="fill:#d0d1d1;fill-opacity:1;fill-rule:nonzero;stroke:none;stroke-width:1.01452518"
       id="path251"
       inkscape:connector-curvature="0" />
    <path
       d="M 158.63247,188.34267 H 38.939237 v -0.93591 H 158.63247 Z"
       style="fill:#d0d1d1;fill-opacity:1;fill-rule:nonzero;stroke:none;stroke-width:1.01452518"
       id="path253"
       inkscape:connector-curvature="0" />
    <path
       d="M 158.63247,191.15041 H 38.939237 V 190.2155 H 158.63247 Z"
       style="fill:#d0d1d1;fill-opacity:1;fill-rule:nonzero;stroke:none;stroke-width:1.01452518"
       id="path255"
       inkscape:connector-curvature="0" />
    <path
       d="m 40.541022,180.19934 v -3.0455 c 0,-5.40805 4.40577,-4.97095 4.40577,-4.97095 H 161.28003 v -6.21344 H 43.745402 c -2.466863,0 -4.180953,0.71131 -5.373185,1.73929 v -0.001 c 0,0 -0.0061,0.006 -0.0061,0.006 -0.104795,0.0901 -0.201418,0.18328 -0.297041,0.27621 -0.01004,0.0111 -0.02134,0.02 -0.03051,0.0305 -0.05494,0.0524 -0.109859,0.10404 -0.16073,0.1589 -2.222723,2.23606 -10.827751,12.37627 -0.919607,26.71135 1.087453,1.86982 3.096549,3.45429 6.787181,3.45429 h 117.53465 v -6.21446 H 44.946792 c 0,0 -4.40577,0.43813 -4.40577,-4.96992 v -3.04754 z"
       style="fill:#ef0f44;fill-opacity:1;fill-rule:nonzero;stroke:none;stroke-width:1.01452518"
       id="path267"
       inkscape:connector-curvature="0" />
    <path
       d="M 167.09307,225.58987 H 36.440838 V 198.34426 H 167.09307 Z"
       style="fill:#f49ab8;fill-opacity:1;fill-rule:nonzero;stroke:none;stroke-width:1.01452518"
       id="path269"
       inkscape:connector-curvature="0" />
    <path
       d="M 78.027585,219.87321 H 44.423303 v -14.93004 h 33.604282 z"
       style="fill:#ef6c9e;fill-opacity:1;fill-rule:nonzero;stroke:none;stroke-width:1.01452518"
       id="path271"
       inkscape:connector-curvature="0" />
    <path
       d="M 167.09307,225.58987 H 36.440838 v -13.6228 H 167.09307 Z"
       style="opacity:0.39999402;fill:#ffffff;fill-opacity:1;fill-rule:nonzero;stroke:none;stroke-width:1.01452518"
       id="path281"
       inkscape:connector-curvature="0" />
    <path
       d="M 145.51385,166.03665 H 58.022082 v -27.2466 h 87.491768 z"
       style="fill:#83e2be;fill-opacity:1;fill-rule:nonzero;stroke:none;stroke-width:1.01452518"
       id="path287"
       inkscape:connector-curvature="0" />
    <path
       d="m 137.20588,166.03665 h -2.28378 v -27.2466 h 2.28378 z"
       style="fill:#22af7c;fill-opacity:1;fill-rule:nonzero;stroke:none;stroke-width:1.01452518"
       id="path289"
       inkscape:connector-curvature="0" />
    <path
       d="M 127.41775,166.03665 H 125.134 v -27.2466 h 2.28375 z"
       style="fill:#22af7c;fill-opacity:1;fill-rule:nonzero;stroke:none;stroke-width:1.01452518"
       id="path291"
       inkscape:connector-curvature="0" />
    <path
       d="M 81.761959,161.12033 H 64.452205 v -17.21771 h 17.309754 z"
       style="fill:#22af7c;fill-opacity:1;fill-rule:nonzero;stroke:none;stroke-width:1.01452518"
       id="path293"
       inkscape:connector-curvature="0" />
    <path
       d="M 145.51385,166.03665 H 58.022082 v -13.6228 h 87.491768 z"
       style="opacity:0.39999402;fill:#fffefd;fill-opacity:1;fill-rule:nonzero;stroke:none;stroke-width:1.01452518"
       id="path303"
       inkscape:connector-curvature="0" />
  </g>
</svg>
